<mxfile host="app.diagrams.net" modified="2023-11-09T11:04:11.719Z" agent="Mozilla/5.0 (X11; Ubuntu; Linux x86_64; rv:109.0) Gecko/20100101 Firefox/119.0" etag="1F50rHEArU6o3ewWtvH8" version="22.0.8" type="device">
  <diagram name="Page-1" id="fIDpOyRQobxb_MCxYIHS">
    <mxGraphModel dx="2284" dy="911" grid="1" gridSize="5" guides="1" tooltips="1" connect="1" arrows="1" fold="1" page="1" pageScale="1" pageWidth="850" pageHeight="1100" math="0" shadow="0">
      <root>
        <mxCell id="0" />
        <mxCell id="1" parent="0" />
        <mxCell id="QJhU5oRQL1Jb571ihN6a-29" style="edgeStyle=orthogonalEdgeStyle;rounded=0;orthogonalLoop=1;jettySize=auto;html=1;entryX=0.5;entryY=1;entryDx=0;entryDy=0;" edge="1" parent="1" target="QJhU5oRQL1Jb571ihN6a-17">
          <mxGeometry relative="1" as="geometry">
            <mxPoint x="560" y="1030" as="sourcePoint" />
            <mxPoint x="-340" y="930" as="targetPoint" />
            <Array as="points">
              <mxPoint x="560" y="1135" />
              <mxPoint x="-55" y="1135" />
            </Array>
          </mxGeometry>
        </mxCell>
        <mxCell id="QJhU5oRQL1Jb571ihN6a-12" value="&lt;div&gt;transmitting&lt;/div&gt;&lt;div&gt;OTAARegReq&lt;/div&gt;" style="rounded=1;whiteSpace=wrap;html=1;fillColor=#f5f5f5;fontColor=#333333;strokeColor=#666666;" vertex="1" parent="1">
          <mxGeometry x="500" y="968.75" width="120" height="60" as="geometry" />
        </mxCell>
        <mxCell id="QJhU5oRQL1Jb571ihN6a-13" value="&lt;div&gt;If CRW &lt;br&gt;&lt;/div&gt;&lt;div&gt;received&lt;/div&gt;" style="text;html=1;align=left;verticalAlign=middle;resizable=0;points=[];autosize=1;" vertex="1" parent="1">
          <mxGeometry x="178.75" y="905" width="65" height="45" as="geometry" />
        </mxCell>
        <mxCell id="QJhU5oRQL1Jb571ihN6a-14" value="" style="edgeStyle=orthogonalEdgeStyle;rounded=0;orthogonalLoop=1;jettySize=auto;html=1;entryX=0;entryY=0.5;entryDx=0;entryDy=0;" edge="1" parent="1" source="QJhU5oRQL1Jb571ihN6a-15" target="QJhU5oRQL1Jb571ihN6a-12">
          <mxGeometry relative="1" as="geometry" />
        </mxCell>
        <mxCell id="QJhU5oRQL1Jb571ihN6a-15" value="TX: request to connect to the parent" style="rounded=0;whiteSpace=wrap;html=1;" vertex="1" parent="1">
          <mxGeometry x="400" y="965" width="60" height="67.5" as="geometry" />
        </mxCell>
        <mxCell id="QJhU5oRQL1Jb571ihN6a-17" value="&lt;div&gt;idleState&lt;/div&gt;" style="rounded=1;whiteSpace=wrap;html=1;fillColor=#f5f5f5;fontColor=#333333;strokeColor=#666666;" vertex="1" parent="1">
          <mxGeometry x="-115" y="915" width="120" height="60" as="geometry" />
        </mxCell>
        <mxCell id="QJhU5oRQL1Jb571ihN6a-18" value="" style="edgeStyle=orthogonalEdgeStyle;rounded=0;orthogonalLoop=1;jettySize=auto;html=1;exitX=1;exitY=0.25;exitDx=0;exitDy=0;" edge="1" parent="1" source="QJhU5oRQL1Jb571ihN6a-20" target="QJhU5oRQL1Jb571ihN6a-15">
          <mxGeometry relative="1" as="geometry">
            <Array as="points">
              <mxPoint x="165" y="945" />
              <mxPoint x="430" y="945" />
            </Array>
          </mxGeometry>
        </mxCell>
        <mxCell id="QJhU5oRQL1Jb571ihN6a-31" style="edgeStyle=orthogonalEdgeStyle;rounded=0;orthogonalLoop=1;jettySize=auto;html=1;exitX=0.5;exitY=1;exitDx=0;exitDy=0;endArrow=oval;endFill=1;" edge="1" parent="1" source="QJhU5oRQL1Jb571ihN6a-20">
          <mxGeometry relative="1" as="geometry">
            <mxPoint x="105.28571428571422" y="1135" as="targetPoint" />
          </mxGeometry>
        </mxCell>
        <mxCell id="QJhU5oRQL1Jb571ihN6a-20" value="searchParent" style="rounded=1;whiteSpace=wrap;html=1;fillColor=#f5f5f5;fontColor=#333333;strokeColor=#666666;" vertex="1" parent="1">
          <mxGeometry x="45" y="915" width="120" height="60" as="geometry" />
        </mxCell>
        <mxCell id="QJhU5oRQL1Jb571ihN6a-22" value="" style="edgeStyle=orthogonalEdgeStyle;rounded=0;orthogonalLoop=1;jettySize=auto;html=1;" edge="1" parent="1" target="QJhU5oRQL1Jb571ihN6a-20">
          <mxGeometry relative="1" as="geometry">
            <mxPoint x="5" y="945" as="sourcePoint" />
          </mxGeometry>
        </mxCell>
        <mxCell id="QJhU5oRQL1Jb571ihN6a-24" style="edgeStyle=orthogonalEdgeStyle;rounded=0;orthogonalLoop=1;jettySize=auto;html=1;exitX=0.5;exitY=1;exitDx=0;exitDy=0;endArrow=oval;endFill=1;" edge="1" parent="1" source="QJhU5oRQL1Jb571ihN6a-25">
          <mxGeometry relative="1" as="geometry">
            <mxPoint x="308" y="1135" as="targetPoint" />
          </mxGeometry>
        </mxCell>
        <mxCell id="QJhU5oRQL1Jb571ihN6a-25" value="&lt;div&gt;+ QUEUE the (potentialParent) node time slot&lt;/div&gt;" style="rounded=0;whiteSpace=wrap;html=1;fillColor=#f8cecc;strokeColor=#b85450;" vertex="1" parent="1">
          <mxGeometry x="250" y="1015" width="115" height="60" as="geometry" />
        </mxCell>
        <mxCell id="QJhU5oRQL1Jb571ihN6a-26" value="" style="endArrow=classic;html=1;rounded=0;entryX=0.5;entryY=0;entryDx=0;entryDy=0;startArrow=oval;startFill=1;" edge="1" parent="1" target="QJhU5oRQL1Jb571ihN6a-25">
          <mxGeometry width="50" height="50" relative="1" as="geometry">
            <mxPoint x="308" y="945" as="sourcePoint" />
            <mxPoint x="380" y="980" as="targetPoint" />
          </mxGeometry>
        </mxCell>
        <mxCell id="QJhU5oRQL1Jb571ihN6a-27" value="If timeout or&lt;br&gt;&lt;div&gt;invalid &lt;br&gt;&lt;/div&gt;&lt;div&gt;response&lt;/div&gt;" style="text;html=1;align=left;verticalAlign=middle;resizable=0;points=[];autosize=1;" vertex="1" parent="1">
          <mxGeometry x="35" y="1015" width="85" height="60" as="geometry" />
        </mxCell>
        <mxCell id="QJhU5oRQL1Jb571ihN6a-28" value="Update the algorithm (*K) " style="text;html=1;strokeColor=none;fillColor=none;align=center;verticalAlign=middle;whiteSpace=wrap;rounded=0;" vertex="1" parent="1">
          <mxGeometry x="260" y="913.5" width="95" height="28" as="geometry" />
        </mxCell>
      </root>
    </mxGraphModel>
  </diagram>
</mxfile>
